# xmcd
#
# Track frame offsets: 
#        150
#        18307
#        37218
#        55797
#        76700
#        96747
#        119219
#        144286
#        165391
#        181508
#        214473
#        249539
#
# Disc length: 3687 seconds
#
# Revision: 0
# Processed by: cddbd v1.5.2PL0 Copyright (c) Steve Scherf et al.
# Submitted via: ExactAudioCopy v0.95b3
#
DISCID=a40e650c
DTITLE=Teddy Pendergrass - Anthology
DYEAR=2003
DGENRE=R&B
TTITLE0=I Want My Baby Back
TTITLE1=Life Is A Song Worth Singing
TTITLE2=You Can't Hide From Yourself
TTITLE3=Is It Still Good To Ya?
TTITLE4=The More I Get, the More I Want
TTITLE5=When Somebody Loves You Back
TTITLE6=Feel the Fire
TTITLE7=Do Me
TTITLE8=Loving You Was Good
TTITLE9=Live Medley: If You Don't Know Me By Now - Bad Luck - Wake Up Ev
TTITLE9=erybody - The Love I Lost
TTITLE10=GetUp, Get Down, Get Funky, Get Loose (Live)
TTITLE11=It Don't Hurt Now
EXTD=
EXTT0=
EXTT1=
EXTT2=
EXTT3=
EXTT4=
EXTT5=
EXTT6=
EXTT7=
EXTT8=
EXTT9=
EXTT10=
EXTT11=
PLAYORDER=
